<svg id="Black" xmlns="http://www.w3.org/2000/svg" viewBox="0 0 888.73 248.05"><defs><style>.cls-1,.cls-4{fill:#333;}.cls-2{fill:#666766;}.cls-3{fill:#999;}.cls-4{stroke:#444545;stroke-miterlimit:10;stroke-width:1.75px;}</style></defs><title>logo</title><g id="Me"><path class="cls-1" d="M112.88,218.42q-1.67-4-4.43-10.19t-5.93-13.36q-3.18-7.18-6.76-14.78T89,165.72q-3.18-6.76-5.93-12.11t-4.43-8.18q-1.84,19.71-3,42.67t-2,46.35H57.76q.67-15,1.5-30.31t1.92-30.06q1.08-14.78,2.34-28.81t2.76-26.56h14.2q4.51,7.35,9.69,17.37t10.36,21q5.18,10.94,10,21.88t8.85,20q4-9,8.85-20t10-21.88q5.18-10.94,10.36-21t9.69-17.37h14.2q5.68,56,8.52,115.75H165.16q-.84-23.38-2-46.35t-3-42.67q-1.67,2.84-4.43,8.18t-5.93,12.11q-3.17,6.76-6.76,14.36t-6.76,14.78q-3.17,7.18-5.93,13.36t-4.43,10.19Z" transform="translate(-57.76 -56.29)"/><path class="cls-1" d="M191.47,191.19a55.41,55.41,0,0,1,3.34-20.13,42,42,0,0,1,8.85-14.28,36,36,0,0,1,12.69-8.52,39.67,39.67,0,0,1,14.7-2.84q17.54,0,26.89,10.94t9.35,33.32v2.59a23.91,23.91,0,0,1-.17,2.92H207.67q1,13.53,7.85,20.54t21.38,7a56.94,56.94,0,0,0,13.78-1.42,49.43,49.43,0,0,0,8.43-2.76l2.17,13a46.14,46.14,0,0,1-9.94,3.17,70.74,70.74,0,0,1-16.12,1.67A51.15,51.15,0,0,1,215.6,233,36.59,36.59,0,0,1,202,223.59a38.47,38.47,0,0,1-7.93-14.28A60.34,60.34,0,0,1,191.47,191.19Zm59.63-8.52q.16-10.52-5.26-17.29t-14.95-6.76a20.49,20.49,0,0,0-9.44,2.09,22.26,22.26,0,0,0-6.93,5.43,25,25,0,0,0-4.43,7.68,37.84,37.84,0,0,0-2.09,8.85Z" transform="translate(-57.76 -56.29)"/></g><g id="PMDD"><path class="cls-1" d="M512,117.54q24.38,0,37.5,9.27t13.11,27.64q0,10-3.59,17.12a29.46,29.46,0,0,1-10.36,11.52,47.28,47.28,0,0,1-16.45,6.43,108.48,108.48,0,0,1-21.88,2H497.5v42.92H481.3V120.37a91.65,91.65,0,0,1,15.28-2.25Q505,117.54,512,117.54Zm1.34,14.2q-10.36,0-15.87.5v45.43H509.7a94.08,94.08,0,0,0,15-1.09A33.93,33.93,0,0,0,536,172.9a18.12,18.12,0,0,0,7.1-7.1,23.56,23.56,0,0,0,2.51-11.52,21.28,21.28,0,0,0-2.59-11,19.52,19.52,0,0,0-7-6.93,30.34,30.34,0,0,0-10.27-3.59A73.14,73.14,0,0,0,513.37,131.73Z" transform="translate(-57.76 -56.29)"/><path class="cls-1" d="M628.49,218.42q-1.67-4-4.43-10.19t-5.93-13.36q-3.17-7.18-6.76-14.78t-6.76-14.36q-3.17-6.76-5.93-12.11t-4.43-8.18q-1.84,19.71-3,42.67t-2,46.35H573.37q.67-15,1.5-30.31t1.92-30.06q1.08-14.78,2.34-28.81t2.76-26.56h14.2q4.51,7.35,9.69,17.37t10.36,21q5.18,10.94,10,21.88t8.85,20q4-9,8.85-20t10-21.88q5.18-10.94,10.36-21t9.69-17.37h14.2q5.68,56,8.52,115.75H680.77q-.84-23.38-2-46.35t-3-42.67q-1.67,2.84-4.43,8.18t-5.93,12.11q-3.17,6.76-6.76,14.36t-6.76,14.78q-3.18,7.18-5.93,13.36t-4.43,10.19Z" transform="translate(-57.76 -56.29)"/><path class="cls-1" d="M811,176.49q0,15-4.68,26.14A48.36,48.36,0,0,1,793.09,221a55.92,55.92,0,0,1-20.38,10.86,89.57,89.57,0,0,1-26.06,3.59q-7,0-15.45-.58a91.4,91.4,0,0,1-15.28-2.25V120.37a91.65,91.65,0,0,1,15.28-2.25q8.43-.58,15.45-.58a89.65,89.65,0,0,1,26.06,3.59A56,56,0,0,1,793.09,132a48.38,48.38,0,0,1,13.19,18.37Q811,161.46,811,176.49Zm-63,44.76q23,0,34.41-11.77t11.36-33q0-21.21-11.36-33T748,131.73q-6.85,0-10.61.17t-5.26.33v88.52q1.5.17,5.26.33T748,221.26Z" transform="translate(-57.76 -56.29)"/><path class="cls-1" d="M921.95,176.49q0,15-4.68,26.14A48.36,48.36,0,0,1,904.07,221a55.92,55.92,0,0,1-20.38,10.86,89.57,89.57,0,0,1-26.06,3.59q-7,0-15.45-.58a91.4,91.4,0,0,1-15.28-2.25V120.37a91.65,91.65,0,0,1,15.28-2.25q8.43-.58,15.45-.58a89.65,89.65,0,0,1,26.06,3.59A56,56,0,0,1,904.07,132a48.38,48.38,0,0,1,13.19,18.37Q921.94,161.46,921.95,176.49Zm-63,44.76q23,0,34.41-11.77t11.36-33q0-21.21-11.36-33T859,131.73q-6.85,0-10.61.17t-5.26.33v88.52q1.5.17,5.26.33T859,221.26Z" transform="translate(-57.76 -56.29)"/></g><g id="Symptin_Tracker" data-name="Symptin Tracker"><path class="cls-2" d="M492.09,291.09a12.9,12.9,0,0,0,7.12-1.67q2.54-1.67,2.54-5.41a7.21,7.21,0,0,0-.82-3.6,7.69,7.69,0,0,0-2.18-2.44,14.17,14.17,0,0,0-3.11-1.69L492,274.8a43.31,43.31,0,0,1-4.35-2,14.89,14.89,0,0,1-3.28-2.28,8.64,8.64,0,0,1-2.06-2.91,9.63,9.63,0,0,1-.71-3.84q0-5,3.34-7.63t9.27-2.6a21.26,21.26,0,0,1,3.11.23,24.05,24.05,0,0,1,2.85.59,21.64,21.64,0,0,1,2.43.82,9.75,9.75,0,0,1,1.84,1l-1.36,3.22a13.67,13.67,0,0,0-4-1.81,18.12,18.12,0,0,0-5.06-.68,14.85,14.85,0,0,0-3.42.37,7.43,7.43,0,0,0-2.69,1.19,5.87,5.87,0,0,0-1.78,2.06,6.39,6.39,0,0,0-.65,3,6.31,6.31,0,0,0,.68,3.05,6.61,6.61,0,0,0,1.89,2.15,15,15,0,0,0,2.85,1.64q1.64.74,3.56,1.53,2.32,1,4.38,1.92a15.82,15.82,0,0,1,3.59,2.26,9.61,9.61,0,0,1,2.43,3.17,10.44,10.44,0,0,1,.9,4.58q0,5.31-3.7,8t-10,2.66a27.7,27.7,0,0,1-4.13-.28,26.5,26.5,0,0,1-3.34-.71,19.42,19.42,0,0,1-2.49-.88,15.12,15.12,0,0,1-1.58-.79l1.24-3.34q.56.34,1.53.79a19.46,19.46,0,0,0,2.26.88,21.07,21.07,0,0,0,2.94.71A21.29,21.29,0,0,0,492.09,291.09Z" transform="translate(-57.76 -56.29)"/><path class="cls-2" d="M520.45,294.2q-1.87-3.51-3.62-7.29t-3.28-7.65q-1.52-3.87-2.79-7.73t-2.17-7.6h4q.63,2.75,1.6,5.93t2.2,6.56q1.23,3.38,2.72,6.94t3.25,7q1.28-3.54,2.26-6.69t1.83-6.27q.84-3.12,1.62-6.39t1.6-7.07h3.73q-1.87,8.32-4.19,16.18a135.78,135.78,0,0,1-5.08,14.37,32.67,32.67,0,0,1-2.24,4.44,12.93,12.93,0,0,1-2.56,3.07,9.1,9.1,0,0,1-3.28,1.78,15.13,15.13,0,0,1-4.4.57A9.35,9.35,0,0,1,509,304a8.25,8.25,0,0,1-1.47-.52l.75-3.09a5.5,5.5,0,0,0,1.29.49,7.76,7.76,0,0,0,2.21.32,11.31,11.31,0,0,0,2.9-.34,6.23,6.23,0,0,0,2.33-1.18,8.62,8.62,0,0,0,1.87-2.15A19.25,19.25,0,0,0,520.45,294.2Z" transform="translate(-57.76 -56.29)"/><path class="cls-2" d="M539.54,265q1.66-.46,4.33-1a34,34,0,0,1,6.91-.57q5.62,0,8.14,3.27.29-.23,1.12-.77a15.76,15.76,0,0,1,2.09-1.12,16.24,16.24,0,0,1,6.71-1.38,12.74,12.74,0,0,1,5.47,1,7.65,7.65,0,0,1,3.24,2.81,11.3,11.3,0,0,1,1.55,4.33,35.25,35.25,0,0,1,.4,5.5v16.56h-3.73V278.21a43.21,43.21,0,0,0-.26-5.07,9.77,9.77,0,0,0-1-3.55,5,5,0,0,0-2.21-2.12,8.36,8.36,0,0,0-3.73-.72,14.33,14.33,0,0,0-3.12.32,13.09,13.09,0,0,0-2.44.77,10.34,10.34,0,0,0-1.69.92q-.66.46-.95.69a17.7,17.7,0,0,1,.77,3.35,28.62,28.62,0,0,1,.26,3.93v16.85h-3.73V278.21a43.21,43.21,0,0,0-.26-5.07,9.4,9.4,0,0,0-1.06-3.55,5.18,5.18,0,0,0-2.26-2.12,8.86,8.86,0,0,0-3.87-.72,30.65,30.65,0,0,0-4.56.29,12,12,0,0,0-2.38.52v26h-3.73Z" transform="translate(-57.76 -56.29)"/><path class="cls-2" d="M592.73,304.17H589V265a33.65,33.65,0,0,1,4.24-1.09,34.31,34.31,0,0,1,6.53-.52,15.93,15.93,0,0,1,5.93,1.06,12.84,12.84,0,0,1,4.58,3.07,14,14,0,0,1,3,4.87,18.57,18.57,0,0,1,1.06,6.48,20.71,20.71,0,0,1-.89,6.22,13.87,13.87,0,0,1-2.61,4.87,12,12,0,0,1-4.21,3.18,13.52,13.52,0,0,1-5.7,1.15,14.05,14.05,0,0,1-5.07-.83,13.22,13.22,0,0,1-3.12-1.58Zm0-15.93a12.36,12.36,0,0,0,3.09,1.72,14.65,14.65,0,0,0,2.24.66,12,12,0,0,0,2.52.26,10.13,10.13,0,0,0,4.61-.95,8.07,8.07,0,0,0,3-2.58,11,11,0,0,0,1.66-3.84,20.5,20.5,0,0,0,.52-4.67q0-5.85-2.92-9a10.1,10.1,0,0,0-7.74-3.12,30.62,30.62,0,0,0-4.44.26,16.54,16.54,0,0,0-2.55.54Z" transform="translate(-57.76 -56.29)"/><path class="cls-2" d="M625.91,263.94h11.81v3.15H625.91v15.76a16,16,0,0,0,.43,4.1,5.72,5.72,0,0,0,1.23,2.44,3.9,3.9,0,0,0,1.95,1.15,10.36,10.36,0,0,0,2.52.29,10.86,10.86,0,0,0,3.78-.54,16.4,16.4,0,0,0,2.24-1l.92,3.1a13.49,13.49,0,0,1-2.81,1.17,13.88,13.88,0,0,1-4.36.66,12.92,12.92,0,0,1-4.61-.72,6.66,6.66,0,0,1-3-2.18,8.91,8.91,0,0,1-1.58-3.64,25.26,25.26,0,0,1-.46-5.16V255.23l3.73-.69Z" transform="translate(-57.76 -56.29)"/><path class="cls-2" d="M669.87,278.78a19.17,19.17,0,0,1-1,6.36,14.17,14.17,0,0,1-2.81,4.87,12.78,12.78,0,0,1-4.27,3.12,13.82,13.82,0,0,1-10.89,0,12.78,12.78,0,0,1-4.27-3.12,14.15,14.15,0,0,1-2.81-4.87,20.68,20.68,0,0,1,0-12.72,14.48,14.48,0,0,1,2.81-4.9,12.61,12.61,0,0,1,4.27-3.15,13.82,13.82,0,0,1,10.89,0,12.61,12.61,0,0,1,4.27,3.15,14.49,14.49,0,0,1,2.81,4.9A19.17,19.17,0,0,1,669.87,278.78Zm-4,0q0-5.56-2.58-8.86a9.07,9.07,0,0,0-14,0q-2.58,3.3-2.58,8.86t2.58,8.83a9.12,9.12,0,0,0,14,0Q665.92,284.34,665.92,278.78Z" transform="translate(-57.76 -56.29)"/><path class="cls-2" d="M678,265q1.66-.46,4.33-1a34,34,0,0,1,6.91-.57q5.62,0,8.14,3.27.29-.23,1.12-.77a15.76,15.76,0,0,1,2.09-1.12,16.24,16.24,0,0,1,6.71-1.38,12.74,12.74,0,0,1,5.47,1,7.65,7.65,0,0,1,3.24,2.81,11.3,11.3,0,0,1,1.55,4.33,35.25,35.25,0,0,1,.4,5.5v16.56h-3.73V278.21a43.21,43.21,0,0,0-.26-5.07,9.77,9.77,0,0,0-1-3.55,5,5,0,0,0-2.21-2.12,8.36,8.36,0,0,0-3.73-.72,14.33,14.33,0,0,0-3.12.32,13.09,13.09,0,0,0-2.44.77,10.34,10.34,0,0,0-1.69.92q-.66.46-.95.69a17.7,17.7,0,0,1,.77,3.35,28.62,28.62,0,0,1,.26,3.93v16.85h-3.73V278.21a43.21,43.21,0,0,0-.26-5.07,9.4,9.4,0,0,0-1.06-3.55,5.18,5.18,0,0,0-2.26-2.12,8.86,8.86,0,0,0-3.87-.72,30.65,30.65,0,0,0-4.56.29,12,12,0,0,0-2.38.52v26H678Z" transform="translate(-57.76 -56.29)"/><path class="cls-2" d="M765.93,253.85v3.38H753.21v36.34h-3.9V257.23H736.59v-3.38Z" transform="translate(-57.76 -56.29)"/><path class="cls-2" d="M780.32,263.37a20.1,20.1,0,0,1,3.47.29,10.72,10.72,0,0,1,2.26.57l-.75,3.21a8.3,8.3,0,0,0-1.86-.49,21.27,21.27,0,0,0-3.7-.26,17.54,17.54,0,0,0-3.87.34,10.82,10.82,0,0,0-1.92.57v26h-3.73V265.31a27.55,27.55,0,0,1,4-1.29A24.58,24.58,0,0,1,780.32,263.37Z" transform="translate(-57.76 -56.29)"/><path class="cls-2" d="M800.67,263.25a13.14,13.14,0,0,1,5,.83,8.52,8.52,0,0,1,3.3,2.29,9,9,0,0,1,1.83,3.47,15.84,15.84,0,0,1,.57,4.36v18.68a16.64,16.64,0,0,1-1.66.37q-1.09.2-2.52.43t-3.18.37q-1.75.14-3.58.14a17.15,17.15,0,0,1-4.33-.52,9.56,9.56,0,0,1-3.44-1.63,7.7,7.7,0,0,1-2.29-2.87,9.89,9.89,0,0,1-.83-4.27,8.65,8.65,0,0,1,.92-4.13A7.79,7.79,0,0,1,793,278a11.57,11.57,0,0,1,4-1.63,22.69,22.69,0,0,1,5-.52q.8,0,1.69.09t1.72.23q.83.14,1.43.29a4.5,4.5,0,0,1,.83.26v-1.83a19.44,19.44,0,0,0-.23-3,6.6,6.6,0,0,0-1-2.64,5.59,5.59,0,0,0-2.18-1.89,8.17,8.17,0,0,0-3.7-.72,19.15,19.15,0,0,0-4.87.46q-1.61.46-2.35.75l-.52-3.27a13.87,13.87,0,0,1,3-.86A25.81,25.81,0,0,1,800.67,263.25Zm.34,27.63q2.18,0,3.81-.14a25.68,25.68,0,0,0,2.78-.37V279.93a11.48,11.48,0,0,0-2-.6,17.8,17.8,0,0,0-3.78-.32,21.64,21.64,0,0,0-2.87.2,8.3,8.3,0,0,0-2.75.86,5.7,5.7,0,0,0-2.06,1.81,5.19,5.19,0,0,0-.8,3,6.51,6.51,0,0,0,.55,2.81,4.53,4.53,0,0,0,1.55,1.83,6.85,6.85,0,0,0,2.41,1A14.56,14.56,0,0,0,801,290.88Z" transform="translate(-57.76 -56.29)"/><path class="cls-2" d="M833.11,294.2a15.84,15.84,0,0,1-6.07-1.09,11.4,11.4,0,0,1-4.38-3.12,13.93,13.93,0,0,1-2.67-4.87,21.9,21.9,0,0,1,0-12.64,14.33,14.33,0,0,1,2.72-4.93,12,12,0,0,1,4.3-3.18,13.86,13.86,0,0,1,5.67-1.12,24,24,0,0,1,4.5.4,11.35,11.35,0,0,1,3.24,1l-1,3.21a12.08,12.08,0,0,0-2.58-.92,17.12,17.12,0,0,0-3.84-.34q-4.93,0-7.48,3.18t-2.55,9a19.22,19.22,0,0,0,.57,4.84,9.74,9.74,0,0,0,1.86,3.78,8.7,8.7,0,0,0,3.32,2.46,12.36,12.36,0,0,0,5,.89,12.9,12.9,0,0,0,4-.54,16.16,16.16,0,0,0,2.38-.95l.8,3.21a14,14,0,0,1-3.24,1.12A19.21,19.21,0,0,1,833.11,294.2Z" transform="translate(-57.76 -56.29)"/><path class="cls-2" d="M854.66,277.44a43.06,43.06,0,0,1,4.09,3.29q2.06,1.87,4.07,4t3.78,4.47a50.84,50.84,0,0,1,3,4.32h-4.48a36.77,36.77,0,0,0-3.12-4.43,51.17,51.17,0,0,0-3.73-4.09q-2-1.92-3.9-3.5a22,22,0,0,0-3.46-2.37v14.4h-3.73V254.76l3.73-1.17V276.7q1.19-1,3-2.79t3.64-3.56q1.85-1.79,3.5-3.47t2.76-2.94h4.55q-1.32,1.38-3,3.06l-3.55,3.5-3.64,3.58Q856.36,275.84,854.66,277.44Z" transform="translate(-57.76 -56.29)"/><path class="cls-2" d="M872.94,278.73a18.82,18.82,0,0,1,1.12-6.79,15,15,0,0,1,2.92-4.84,11.52,11.52,0,0,1,4.13-2.89,12.57,12.57,0,0,1,4.79-.95,11.18,11.18,0,0,1,8.68,3.55q3.24,3.55,3.24,10.95c0,.31,0,.61,0,.92s0,.59-.09.86H876.89q.17,5.45,2.69,8.37t8,2.92a16.21,16.21,0,0,0,4.81-.57,20.12,20.12,0,0,0,2.58-1l.69,3.21a15.43,15.43,0,0,1-3,1.09,19,19,0,0,1-5.19.63,17.28,17.28,0,0,1-6.65-1.15,11.9,11.9,0,0,1-4.53-3.21,12.69,12.69,0,0,1-2.58-4.9A22.76,22.76,0,0,1,872.94,278.73Zm21-2.35a11.77,11.77,0,0,0-2.18-7.22,7.06,7.06,0,0,0-5.85-2.58,7.79,7.79,0,0,0-3.58.8,9.11,9.11,0,0,0-2.75,2.15,10,10,0,0,0-1.83,3.12,12.79,12.79,0,0,0-.77,3.73Z" transform="translate(-57.76 -56.29)"/><path class="cls-2" d="M916.21,263.37a20.1,20.1,0,0,1,3.47.29,10.72,10.72,0,0,1,2.26.57l-.75,3.21a8.3,8.3,0,0,0-1.86-.49,21.27,21.27,0,0,0-3.7-.26,17.54,17.54,0,0,0-3.87.34,10.82,10.82,0,0,0-1.92.57v26h-3.73V265.31a27.55,27.55,0,0,1,4-1.29A24.58,24.58,0,0,1,916.21,263.37Z" transform="translate(-57.76 -56.29)"/></g><g id="_copy" data-name="™ copy"><path class="cls-3" d="M926.39,105.93h-4v-1.43h9.66v1.43h-4v11.61h-1.7Z" transform="translate(-57.76 -56.29)"/><path class="cls-3" d="M944.52,111.81c-.1-1.82-.21-4-.19-5.63h-.06c-.45,1.53-1,3.15-1.64,5l-2.3,6.33H939l-2.11-6.21c-.62-1.84-1.14-3.52-1.51-5.07h0c0,1.63-.14,3.81-.25,5.77l-.35,5.59h-1.61l.91-13h2.15l2.22,6.31c.54,1.61,1,3,1.32,4.39h.06c.33-1.32.79-2.75,1.37-4.39l2.32-6.31h2.15l.81,13h-1.64Z" transform="translate(-57.76 -56.29)"/></g><g id="Arm_Icon" data-name="Arm Icon"><path class="cls-4" d="M470.25,92c.14-1.7-.46-3.45-.65-5.18a6.28,6.28,0,0,1,0-2.7c1.16-3.15.13-5.7-2-8A9.54,9.54,0,0,1,465,70.9c-.63-4.42-3.64-6.59-7.62-7.31a49.93,49.93,0,0,1-11.43-3.76,29.48,29.48,0,0,0-11.78-2.67c-3.17,0-6,1.07-7.77,4l-2.55,4.34c-1.2-1.9-2.8-1.62-4.38-1.23-6.52,1.6-6.7,6.86-4.48,11a1.68,1.68,0,0,1,.2,1.15,9.22,9.22,0,0,0,1.25,8.31,6.66,6.66,0,0,1,1,3.72c.13,4.1.29,8.26,2.33,11.93a58.94,58.94,0,0,0,4.48,6.3c.83,1.12,1.86,2.1,2.61,3.27,1.21,1.91,0,3.63-.7,5.33-2.67,6.43-6.86,11.83-11.43,17-2.65,3-5.1,6.17-7.8,9.11-2.46,2.69-5.16,5.15-7.7,7.76s-5.26,5.43-7.83,8.2a90.1,90.1,0,0,1-11.09,9.69l-5.72,4.44a6.75,6.75,0,0,1-.75.52,7.55,7.55,0,0,1-.79.48c-.49.41-1,.8-1.5,1.18a10.48,10.48,0,0,0-1.17.82,1.34,1.34,0,0,1-.43.34c-.18.21-.36.41-.56.61a54.37,54.37,0,0,1-4.71,4,4.1,4.1,0,0,1-1.1.41c-.19-.79-.4-1.47-.49-2.17a1.75,1.75,0,0,1-.05-.2c-.13-.69-.31-1.37-.44-2.06l-.05-.14h0c-.35-1.39-.66-2.47-.88-3.56a52.81,52.81,0,0,0-3.14-10.77,29.23,29.23,0,0,0-3.17-6.33q-.76-1.15-1.63-2.21l-2-.33q.14-.84.23-1.68-.45-.46-.93-.91h0l0,0-.06-.05-.37-.37-.14-.1-.1-.09v0c-.55-.36-1.33-.78-1.33-.78l-.39-.14-.84-.3c-.36-.12-.72-.23-1-.32l-.66-.18s-2.67-.46-4-.67a2.65,2.65,0,0,1-.29-.08c-1.86.3-4.24.42-6.39.76a42.8,42.8,0,0,0-13.82,4.4c2.29-3.61,5.51-6.42,8.13-9.82-.34.2-.71.38-1,.6a42.2,42.2,0,0,0-12.56,14.39,67.27,67.27,0,0,0-7.37,17.86,76.06,76.06,0,0,0-1.2,11.11c-.05.72.62,1.46.83,2.23a17.18,17.18,0,0,1,.3,2.3,4.82,4.82,0,0,1-3.55-1.23,18.09,18.09,0,0,1-4.3-6.37c-2-5.18-2.16-10.55-2.37-16a2.15,2.15,0,0,0-.26-1.06c-1.28,2.62-.8,5.43-1,8.39a19.11,19.11,0,0,1-5.68-4.32,20.82,20.82,0,0,1-4.21-10.23q-.17-1-.44-2s0,0,0,0l-1.67.33,1.56,7.69c.05.13.11.25.16.38a17.36,17.36,0,0,0,8.08,9.08,13.36,13.36,0,0,0,2.07.77c.79,2.79,1.39,5.5,2.34,8.07,1.3,3.55,3.31,6.6,7.07,8a4.67,4.67,0,0,0,1.41.32,1.65,1.65,0,0,1,1.36.63,7.65,7.65,0,0,1,2.62,4.27,3.08,3.08,0,0,1,.24.51c.67,1.8,1.54,3.53,2.35,5.37h0c.29.57.58,1.18.85,1.81l.21.51.12.25c2.12,4.49,4.38,8.92,6.63,13.35a17.47,17.47,0,0,0,1.82,2.74,2,2,0,0,1,.32.56c.4.54.77,1.08,1.11,1.61h0c1.31,1.82,2.48,3.4,3.59,5,2.19,3.19,4.18,6.51,6.54,9.56a32.79,32.79,0,0,0,9.9,8.41,83.27,83.27,0,0,0,10.13,5,16.33,16.33,0,0,0,12.38,0,13,13,0,0,0,3.41-2.4c1.19-1,2.23-2.22,3.34-3.34l.05,0,.55-.64a19.49,19.49,0,0,1,2-2,4.13,4.13,0,0,1,.46-.43c4-3.14,8-6.18,11.81-9.52,3.58-3.16,7-6.57,10.26-10,5.57-5.87,9.91-12.67,14.17-19.51,3.93-6.31,7.82-12.64,11.62-19,2.58-4.34,5-8.77,7.44-13.21,1.72-3.17,3.27-6.43,5-9.62,3.18-6,7.56-18.08,7.56-18.08s2.11-6.85,4.36-12.33,6.43-7.91,10.65-15.66,4.2-9.52,5.66-14.27a5,5,0,0,1,.89-1.61A14.82,14.82,0,0,0,470.25,92Zm-3.47,5.8a54.52,54.52,0,0,0-4.1,10.81c-2.1,7.26-11.12,15.65-12.73,19.83s-3.79,10-3.79,10-5.41,14.44-8,19.21c-2.15,4-3.64,8.05-5.82,12s-4.78,7.92-6.84,12c-5.61,11.17-12.76,21.37-19.76,31.64a81,81,0,0,1-14.84,16.55c-5.15,4.32-10.35,8.58-15.46,12.94a58.73,58.73,0,0,0-5,4.93c-2.77,3-6.24,3.74-10.1,3.27a30.23,30.23,0,0,1-11.66-4.35c-4.46-2.62-8.68-5.61-11.9-9.69-2.25-2.85-4.13-6-6.15-9-.88-1.31-1.61-2.74-2.58-4-4.77-6.14-8.05-13.1-11.21-20.13-2-4.53-3.93-9.13-5.89-13.7-2.47-5.78-1.62-11.57.17-17.28a67.74,67.74,0,0,1,3.82-9.82c2-4.06,4.34-8.12,8.64-10.17a61.82,61.82,0,0,1,9.09-3c2.4-.71,4.85-1.22,7.29-1.81,1.89-.46,5.34.82,5.34.82a14.91,14.91,0,0,1,2.42.8,5.65,5.65,0,0,1,1.78,1.18h0a27.3,27.3,0,0,1,7.27,11.1c.39,1.41,2.4,8.64,3.35,12.45.53,2.13.94,4.3,1.42,6.44a3.18,3.18,0,0,1-.81,2.87,56.56,56.56,0,0,0-3.21,4.81c-.15.23-.07.61-.09.92.29-.11.67-.14.86-.35,1.7-1.84,3.24-3.85,5.07-5.55,3-2.85,6.21-5.58,9.44-8.23,3.43-2.81,7.06-5.37,10.47-8.2,3-2.52,6-5.17,8.79-7.93,3.19-3.14,6.07-6.6,9.31-9.69,7.07-6.71,13.26-14.18,19.4-21.7a44.72,44.72,0,0,0,7.56-14c.93-2.7.65-5.07-1.52-7.13a23.36,23.36,0,0,1-5.45-7.06,27.13,27.13,0,0,1-2.06-10.81,9.06,9.06,0,0,0-1.59-5.43c-1.66-2.28-1.74-4.89-1.1-7.58a4.07,4.07,0,0,0-.2-1.64,21,21,0,0,1-.81-3.84c0-2.54,3.55-5.24,6-4.68a2.26,2.26,0,0,1,1.06.89c1.81,2.36,3.55,4.77,5.4,7.1a2.6,2.6,0,0,0,1.58.81,26.65,26.65,0,0,0,5.24.38,8,8,0,0,0,3.07-1.32c3.28-1.87,6.51-3.82,9.79-5.68a16.74,16.74,0,0,1,2.57-.92c-3.25-.38-5.83.87-8.25,2.25a7,7,0,0,1-6.22.22c-3.25-1.15-4.57-1.67-4.4-6.55a5.06,5.06,0,0,0-.08-.68c-.92,1-1,2.35-.51,5.09l-2.36.68,0,.38c2.38.92,5.81.67,5.45,4.83-1.89-.14-3.86.36-5.36-1.48a31.64,31.64,0,0,0-2.51-2.33c-1.25-1.23-1.33-2-.45-3.51.58-1,1.19-2,1.72-3,1.62-3.1,4.14-4.32,7.59-3.92a38.82,38.82,0,0,1,14.53,4.45,9.79,9.79,0,0,0,2.47.83c2.35.56,4.74,1,7.06,1.62a6,6,0,0,1,4.71,6,8.26,8.26,0,0,0,2.2,5c.55.68,1.1,1.37,1.6,2.1a4.06,4.06,0,0,1,.6,3.76,8.29,8.29,0,0,0-.05,5.42C469.26,91.46,468.42,94.71,466.78,97.77ZM435.27,70.89l2.6.57h0l-2.21,1.58-.36-2.14Z" transform="translate(-57.76 -56.29)"/><path class="cls-4" d="M285.15,157.64l0,.17c0-.06,0-.12,0-.19Z" transform="translate(-57.76 -56.29)"/><path class="cls-4" d="M301.22,147.74a41.14,41.14,0,0,0-3.43,14.13,3.74,3.74,0,0,0,.41,1.21,4.53,4.53,0,0,0,.67-1.08c1.12-4.06,2.09-8.16,3.33-12.18.55-1.79,1.28-3.52,1.86-5.3l-2.21,1.58Q301.55,146.92,301.22,147.74Z" transform="translate(-57.76 -56.29)"/><path class="cls-4" d="M356.1,236.24c-3-1.24-5.78-2.83-8.76-4.3a6,6,0,0,0,.62.85c4,3.74,8.81,5.48,14.08,6.22a6.46,6.46,0,0,0,2.34-.28,5.36,5.36,0,0,0,1.28-.71l-.14-.36A22.17,22.17,0,0,1,356.1,236.24Z" transform="translate(-57.76 -56.29)"/><path class="cls-4" d="M292.63,137h-1.24a5.3,5.3,0,0,1-.78-.09,42.57,42.57,0,0,0-5.43,20.76c0,.06,0,.12,0,.19s0,.07,0,.1h0l1.67-.33s0,0,0,0C286.73,150.59,288.93,143.45,292.63,137Z" transform="translate(-57.76 -56.29)"/><path class="cls-4" d="M352.58,138.78a13.91,13.91,0,0,0-2.93-4.63,20.61,20.61,0,0,0-3.19-14.29,11.34,11.34,0,0,1-1.39.94,16.74,16.74,0,0,1,2.69,11.86,8.11,8.11,0,0,0-2.83-1l0,.26c5.11.85,8,9.85,7,18.67q-.09.84-.23,1.68l2,.33h.06A26.15,26.15,0,0,0,352.58,138.78Z" transform="translate(-57.76 -56.29)"/><path class="cls-4" d="M359.93,110.7a3,3,0,0,0-1.48-1.49,18.93,18.93,0,0,0-3.16-.15q-3-.25-5.91-.6c-1.2-.07-2.39-.19-3.58-.32h-.2c-2-.17-4-.44-6.07-.6-2.45-.2-4.9-.3-7.35-.51a2.71,2.71,0,0,1-.42-.07c-1,0-1.95,0-2.92,0-2.75.29-5.46.69-8.19.72-4.45.06-7.15,2.37-8.93,6.15-.42.88-.89,1.74-1.25,2.64s-.68.73-1.37.49c-2.51-.89-5-1.7-7.59-2.5a2.43,2.43,0,0,0-1.49-.08,3.12,3.12,0,0,1-1.14.23l-.63.22a4.87,4.87,0,0,0-1.29.52,1.62,1.62,0,0,1-.36.21l-.1.07h0l-21.44,14.05q-2.6,1.7-5.15,3.48a1.15,1.15,0,0,0-.44.8c0,.16.39.44.64.48a21.21,21.21,0,0,0,2.38.23c3.25.15,6.49.29,9.74.43a1.23,1.23,0,0,1,.45,0h.21l.13,0h.08a2.52,2.52,0,0,1,.61.1,5.44,5.44,0,0,1,.56.1c1,.16,2,.29,3,.54l.15,0,.25.05a5.62,5.62,0,0,1,.67.12c.93.07,1.92.37,2.74.44,1.72.15,3.44.24,5.15.37l.35,0A26,26,0,0,0,310,132a24.18,24.18,0,0,0,3-3,3.92,3.92,0,0,1,1.17-.68c.75-.33,1.52-.64,2.29-.91a3.2,3.2,0,0,1,1.39-.29,2.81,2.81,0,0,0,2.56-.77,1.51,1.51,0,0,1,1.09-.26c1.85.19,3.69.57,5.54.65a16.22,16.22,0,0,0,8.24-2.29c2.8-1.48,5.45-3.25,8.15-4.92l.2-.11a9.55,9.55,0,0,1,1.28-.72,10.52,10.52,0,0,0,1-.75,1.28,1.28,0,0,1,.51-.28l11.45-5.21a4,4,0,0,0,1-.49C359.36,111.55,360,110.88,359.93,110.7ZM312,128.52a15.94,15.94,0,0,1-6.91,4.54l0,0-.23.14c-.32.17-.66.3-1,.43l-.27.11a3.56,3.56,0,0,1-.61.29,24.54,24.54,0,0,1-2.65.85,4.62,4.62,0,0,1-2.7.5h-.07v.06l-7.27-.08.14-.21a5.11,5.11,0,0,1-1.31-.13,3.24,3.24,0,0,1-.85-.34l-.23,0c-.53-.14-1.07-.22-1.61-.31a2.17,2.17,0,0,1-.68-.24l-.34,0a4.35,4.35,0,0,1-1.26-.18L273,133c1.78-1.24,3.32-2.36,4.9-3.41,5.36-3.56,10.72-7.13,16.13-10.62a46.36,46.36,0,0,1,5.37-2.87,3.87,3.87,0,0,1,2.09-.19,16.55,16.55,0,0,1,7.48,3,15.43,15.43,0,0,1,4.15,5.17A3.85,3.85,0,0,1,312,128.52Zm8.08-4.78c-.52,1.83-.64,1.91-2.7,1.74.34-1.58,1.09-3.16-1.06-4.3a4.21,4.21,0,0,1-1.72,5.69c-.13-.18-.22-.25-.21-.3.74-2.86-.93-4.73-2.68-6.57-.42-.44-1.18-.86-.55-1.55a2.15,2.15,0,0,1,1.55-.67,27.8,27.8,0,0,1,4.72.86C320,119.35,320.85,121.19,320.12,123.74Zm31.07-10.07a3.17,3.17,0,0,1-1.31.59l-.34.21a1.48,1.48,0,0,1-.28.26,15.31,15.31,0,0,1-3,1.48,2.78,2.78,0,0,1-.45.23,11.4,11.4,0,0,0-1.24.64h0l-9,5.67,0,0a5.2,5.2,0,0,1-1.7.78,2.72,2.72,0,0,1-.43.2c-.86.3-1.71.6-2.58.87a7.12,7.12,0,0,1-3.09.66s0,.06,0,.1l-6.72-1.05c.64-2.43.8-4.59-1.9-6l2.33-3,.41.09s0,0,0,.05a2.84,2.84,0,0,1,.72-.18c-.49.06.14,0,.24-.07l.48-.13a4,4,0,0,1,1.09-.36,5.2,5.2,0,0,0,1.1-.3,3.21,3.21,0,0,1,.66-.22,10.08,10.08,0,0,1,1.44-.29h.13l0,0,3.14-.58h0a13.88,13.88,0,0,1,1.46-.24,2.15,2.15,0,0,1,.6-.2,5.94,5.94,0,0,0,1.73-1c-2.88.37-5.64.59-8.35,1.1-2.09.4-4.12,1.1-6.17,1.69a2,2,0,0,0-.5.31c-.46.71-.91,1.43-1.42,2.1a1,1,0,0,1-.82.31c-1.7-.31-3.39-.69-5.24-1.07l1.64-3.34.05.14,0-.06a5.18,5.18,0,0,1,1.25-1.67,5.64,5.64,0,0,1,4.35-2c.41,0,.82,0,1.23,0l3.68-.5a.37.37,0,0,1,.17-.08,6.31,6.31,0,0,1,2-.07l3.75-.08h0a8.14,8.14,0,0,1,1.9-.19,2,2,0,0,1,.59,0c3.08.27,6.16.51,9.24.79,3.45.32,6.89.71,10.35,1,1.73.14,3.47.09,5.2.17a1.84,1.84,0,0,1,1.2.54Z" transform="translate(-57.76 -56.29)"/><path class="cls-4" d="M310.53,122.12c-3.81-1.9-7.19,0-10.67,1.48a8.44,8.44,0,0,1-1.24.88l-.38.25a3.37,3.37,0,0,1-.65.42,6.48,6.48,0,0,1-1,.92l-.16.13a2.45,2.45,0,0,1-.33.31l-.27.29-.42.75.18.22,6.76-3.76c.83-.61,1.85-.59,2.78-1a.4.4,0,0,1,.29,0,8.32,8.32,0,0,1,2.59-.58,5,5,0,0,1,2,0,.34.34,0,0,1,.21.12h.34Z" transform="translate(-57.76 -56.29)"/></g></svg>