<svg id="Color" xmlns="http://www.w3.org/2000/svg" viewBox="0 0 888.73 197.69"><defs><style>.cls-1{fill:#555;}.cls-2{fill:#ec4972;}.cls-3{fill:#999;}.cls-4{fill:#666;stroke:#666766;stroke-miterlimit:10;stroke-width:1.75px;}</style></defs><title>logo</title><g id="Me"><path class="cls-1" d="M108.88,207.75q-1.67-4-4.43-10.19T98.53,184.2q-3.18-7.18-6.76-14.78T85,155.05q-3.18-6.76-5.93-12.11t-4.43-8.18q-1.84,19.71-3,42.67t-2,46.35H53.76q.67-15,1.5-30.31t1.92-30.06q1.08-14.78,2.34-28.81T62.28,108h14.2q4.51,7.35,9.69,17.37t10.36,21q5.18,10.94,10,21.88t8.85,20q4-9,8.85-20t10-21.88q5.18-10.94,10.36-21T154.31,108h14.2q5.68,56,8.52,115.75H161.16q-.84-23.38-2-46.35t-3-42.67q-1.67,2.84-4.43,8.18t-5.93,12.11q-3.17,6.76-6.76,14.36t-6.76,14.78q-3.17,7.18-5.93,13.36t-4.43,10.19Z" transform="translate(-53.76 -45.63)"/><path class="cls-1" d="M187.47,180.53a55.41,55.41,0,0,1,3.34-20.13,42,42,0,0,1,8.85-14.28,36,36,0,0,1,12.69-8.52,39.67,39.67,0,0,1,14.7-2.84q17.54,0,26.89,10.94T263.29,179v2.59a23.91,23.91,0,0,1-.17,2.92H203.67q1,13.53,7.85,20.54t21.38,7a56.94,56.94,0,0,0,13.78-1.42,49.43,49.43,0,0,0,8.43-2.76l2.17,13a46.14,46.14,0,0,1-9.94,3.17,70.74,70.74,0,0,1-16.12,1.67,51.15,51.15,0,0,1-19.62-3.42A36.59,36.59,0,0,1,198,212.93a38.47,38.47,0,0,1-7.93-14.28A60.34,60.34,0,0,1,187.47,180.53ZM247.09,172q.16-10.52-5.26-17.29T226.88,148a20.49,20.49,0,0,0-9.44,2.09,22.26,22.26,0,0,0-6.93,5.43,25,25,0,0,0-4.43,7.68A37.84,37.84,0,0,0,204,172Z" transform="translate(-53.76 -45.63)"/></g><g id="PMDD"><path class="cls-2" d="M508,106.87q24.38,0,37.5,9.27t13.11,27.64q0,10-3.59,17.12a29.46,29.46,0,0,1-10.36,11.52,47.28,47.28,0,0,1-16.45,6.43,108.48,108.48,0,0,1-21.88,2H493.5v42.92H477.3V109.71a91.65,91.65,0,0,1,15.28-2.25Q501,106.87,508,106.87Zm1.34,14.2q-10.36,0-15.87.5V167H505.7a94.08,94.08,0,0,0,15-1.09A33.93,33.93,0,0,0,532,162.24a18.12,18.12,0,0,0,7.1-7.1,23.56,23.56,0,0,0,2.51-11.52,21.28,21.28,0,0,0-2.59-11,19.52,19.52,0,0,0-7-6.93,30.34,30.34,0,0,0-10.27-3.59A73.14,73.14,0,0,0,509.37,121.07Z" transform="translate(-53.76 -45.63)"/><path class="cls-2" d="M624.49,207.75q-1.67-4-4.43-10.19t-5.93-13.36Q611,177,607.37,169.42t-6.76-14.36q-3.17-6.76-5.93-12.11t-4.43-8.18q-1.84,19.71-3,42.67t-2,46.35H569.37q.67-15,1.5-30.31t1.92-30.06q1.08-14.78,2.34-28.81T577.89,108h14.2q4.51,7.35,9.69,17.37t10.36,21q5.18,10.94,10,21.88t8.85,20q4-9,8.85-20t10-21.88q5.18-10.94,10.36-21T669.92,108h14.2q5.68,56,8.52,115.75H676.77q-.84-23.38-2-46.35t-3-42.67q-1.67,2.84-4.43,8.18t-5.93,12.11q-3.17,6.76-6.76,14.36t-6.76,14.78q-3.18,7.18-5.93,13.36t-4.43,10.19Z" transform="translate(-53.76 -45.63)"/><path class="cls-2" d="M807,165.83q0,15-4.68,26.14a48.36,48.36,0,0,1-13.19,18.37,55.92,55.92,0,0,1-20.38,10.86,89.57,89.57,0,0,1-26.06,3.59q-7,0-15.45-.58a91.4,91.4,0,0,1-15.28-2.25V109.71a91.65,91.65,0,0,1,15.28-2.25q8.43-.58,15.45-.58a89.65,89.65,0,0,1,26.06,3.59,56,56,0,0,1,20.38,10.86,48.38,48.38,0,0,1,13.19,18.37Q807,150.8,807,165.83Zm-63,44.76q23,0,34.41-11.77t11.36-33q0-21.21-11.36-33T744,121.07q-6.85,0-10.61.17t-5.26.33v88.52q1.5.17,5.26.33T744,210.59Z" transform="translate(-53.76 -45.63)"/><path class="cls-2" d="M917.95,165.83q0,15-4.68,26.14a48.36,48.36,0,0,1-13.19,18.37A55.92,55.92,0,0,1,879.7,221.2a89.57,89.57,0,0,1-26.06,3.59q-7,0-15.45-.58a91.4,91.4,0,0,1-15.28-2.25V109.71a91.65,91.65,0,0,1,15.28-2.25q8.43-.58,15.45-.58a89.65,89.65,0,0,1,26.06,3.59,56,56,0,0,1,20.38,10.86,48.38,48.38,0,0,1,13.19,18.37Q917.94,150.8,917.95,165.83Zm-63,44.76q23,0,34.41-11.77t11.36-33q0-21.21-11.36-33T855,121.07q-6.85,0-10.61.17t-5.26.33v88.52q1.5.17,5.26.33T855,210.59Z" transform="translate(-53.76 -45.63)"/></g><g id="_" data-name="™"><path class="cls-3" d="M922.39,95.26h-4V93.83h9.66v1.43h-4v11.61h-1.7Z" transform="translate(-53.76 -45.63)"/><path class="cls-3" d="M940.52,101.14c-.1-1.82-.21-4-.19-5.63h-.06c-.45,1.53-1,3.15-1.64,5l-2.3,6.33H935l-2.11-6.21c-.62-1.84-1.14-3.52-1.51-5.07h0c0,1.63-.14,3.81-.25,5.77l-.35,5.59h-1.61l.91-13h2.15l2.22,6.31c.54,1.61,1,3,1.32,4.39h.06c.33-1.32.79-2.75,1.37-4.39l2.32-6.31h2.15l.81,13h-1.64Z" transform="translate(-53.76 -45.63)"/></g><g id="Arm_Icon" data-name="Arm Icon"><path class="cls-4" d="M466.25,81.3c.14-1.7-.46-3.45-.65-5.18a6.28,6.28,0,0,1,0-2.7c1.16-3.15.13-5.7-2-8a9.54,9.54,0,0,1-2.64-5.2c-.63-4.42-3.64-6.59-7.62-7.31a49.93,49.93,0,0,1-11.43-3.76,29.48,29.48,0,0,0-11.78-2.67c-3.17,0-6,1.07-7.77,4l-2.55,4.34c-1.2-1.9-2.8-1.62-4.38-1.23-6.52,1.6-6.7,6.86-4.48,11a1.68,1.68,0,0,1,.2,1.15,9.22,9.22,0,0,0,1.25,8.31,6.66,6.66,0,0,1,1,3.72c.13,4.1.29,8.26,2.33,11.93a58.94,58.94,0,0,0,4.48,6.3c.83,1.12,1.86,2.1,2.61,3.27,1.21,1.91,0,3.63-.7,5.33-2.67,6.43-6.86,11.83-11.43,17-2.65,3-5.1,6.17-7.8,9.11-2.46,2.69-5.16,5.15-7.7,7.76s-5.26,5.43-7.83,8.2a90.1,90.1,0,0,1-11.09,9.69l-5.72,4.44a6.75,6.75,0,0,1-.75.52,7.55,7.55,0,0,1-.79.48c-.49.41-1,.8-1.5,1.18a10.48,10.48,0,0,0-1.17.82,1.34,1.34,0,0,1-.43.34c-.18.21-.36.41-.56.61a54.37,54.37,0,0,1-4.71,4,4.1,4.1,0,0,1-1.1.41c-.19-.79-.4-1.47-.49-2.17a1.75,1.75,0,0,1-.05-.2c-.13-.69-.31-1.37-.44-2.06l-.05-.14h0c-.35-1.39-.66-2.47-.88-3.56a52.81,52.81,0,0,0-3.14-10.77,29.23,29.23,0,0,0-3.17-6.33q-.76-1.15-1.63-2.21l-2-.33q.14-.84.23-1.68-.45-.46-.93-.91h0l0,0-.06-.05-.37-.37-.14-.1-.1-.09v0c-.55-.36-1.33-.78-1.33-.78l-.39-.14-.84-.3c-.36-.12-.72-.23-1-.32l-.66-.18s-2.67-.46-4-.67a2.65,2.65,0,0,1-.29-.08c-1.86.3-4.24.42-6.39.76a42.8,42.8,0,0,0-13.82,4.4c2.29-3.61,5.51-6.42,8.13-9.82-.34.2-.71.38-1,.6a42.2,42.2,0,0,0-12.56,14.39,67.27,67.27,0,0,0-7.37,17.86,76.06,76.06,0,0,0-1.2,11.11c-.05.72.62,1.46.83,2.23a17.18,17.18,0,0,1,.3,2.3,4.82,4.82,0,0,1-3.55-1.23,18.09,18.09,0,0,1-4.3-6.37c-2-5.18-2.16-10.55-2.37-16a2.15,2.15,0,0,0-.26-1.06c-1.28,2.62-.8,5.43-1,8.39a19.11,19.11,0,0,1-5.68-4.32,20.82,20.82,0,0,1-4.21-10.23q-.17-1-.44-2s0,0,0,0l-1.67.33,1.56,7.69c.05.13.11.25.16.38a17.36,17.36,0,0,0,8.08,9.08,13.36,13.36,0,0,0,2.07.77c.79,2.79,1.39,5.5,2.34,8.07,1.3,3.55,3.31,6.6,7.07,8a4.67,4.67,0,0,0,1.41.32,1.65,1.65,0,0,1,1.36.63,7.65,7.65,0,0,1,2.62,4.27,3.08,3.08,0,0,1,.24.51c.67,1.8,1.54,3.53,2.35,5.37h0c.29.57.58,1.18.85,1.81l.21.51.12.25c2.12,4.49,4.38,8.92,6.63,13.35a17.47,17.47,0,0,0,1.82,2.74,2,2,0,0,1,.32.56c.4.54.77,1.08,1.11,1.61h0c1.31,1.82,2.48,3.4,3.59,5,2.19,3.19,4.18,6.51,6.54,9.56a32.79,32.79,0,0,0,9.9,8.41,83.27,83.27,0,0,0,10.13,5,16.33,16.33,0,0,0,12.38,0,13,13,0,0,0,3.41-2.4c1.19-1,2.23-2.22,3.34-3.34l.05,0,.55-.64a19.49,19.49,0,0,1,2-2,4.13,4.13,0,0,1,.46-.43c4-3.14,8-6.18,11.81-9.52,3.58-3.16,7-6.57,10.26-10,5.57-5.87,9.91-12.67,14.17-19.51,3.93-6.31,7.82-12.64,11.62-19,2.58-4.34,5-8.77,7.44-13.21,1.72-3.17,3.27-6.43,5-9.62,3.18-6,7.56-18.08,7.56-18.08s2.11-6.85,4.36-12.33,6.43-7.91,10.65-15.66,4.2-9.52,5.66-14.27a5,5,0,0,1,.89-1.61A14.82,14.82,0,0,0,466.25,81.3Zm-3.47,5.8a54.52,54.52,0,0,0-4.1,10.81c-2.1,7.26-11.12,15.65-12.73,19.83s-3.79,10-3.79,10-5.41,14.44-8,19.21c-2.15,4-3.64,8.05-5.82,12s-4.78,7.92-6.84,12c-5.61,11.17-12.76,21.37-19.76,31.64a81,81,0,0,1-14.84,16.55c-5.15,4.32-10.35,8.58-15.46,12.94a58.73,58.73,0,0,0-5,4.93c-2.77,3-6.24,3.74-10.1,3.27A30.23,30.23,0,0,1,344.73,236c-4.46-2.62-8.68-5.61-11.9-9.69-2.25-2.85-4.13-6-6.15-9-.88-1.31-1.61-2.74-2.58-4-4.77-6.14-8.05-13.1-11.21-20.13-2-4.53-3.93-9.13-5.89-13.7-2.47-5.78-1.62-11.57.17-17.28A67.74,67.74,0,0,1,311,152.4c2-4.06,4.34-8.12,8.64-10.17a61.82,61.82,0,0,1,9.09-3c2.4-.71,4.85-1.22,7.29-1.81,1.89-.46,5.34.82,5.34.82a14.91,14.91,0,0,1,2.42.8,5.65,5.65,0,0,1,1.78,1.18h0a27.3,27.3,0,0,1,7.27,11.1c.39,1.41,2.4,8.64,3.35,12.45.53,2.13.94,4.3,1.42,6.44a3.18,3.18,0,0,1-.81,2.87,56.56,56.56,0,0,0-3.21,4.81c-.15.23-.07.61-.09.92.29-.11.67-.14.86-.35,1.7-1.84,3.24-3.85,5.07-5.55,3-2.85,6.21-5.58,9.44-8.23,3.43-2.81,7.06-5.37,10.47-8.2,3-2.52,6-5.17,8.79-7.93,3.19-3.14,6.07-6.6,9.31-9.69,7.07-6.71,13.26-14.18,19.4-21.7a44.72,44.72,0,0,0,7.56-14c.93-2.7.65-5.07-1.52-7.13A23.36,23.36,0,0,1,417.43,89a27.13,27.13,0,0,1-2.06-10.81,9.06,9.06,0,0,0-1.59-5.43c-1.66-2.28-1.74-4.89-1.1-7.58a4.07,4.07,0,0,0-.2-1.64,21,21,0,0,1-.81-3.84c0-2.54,3.55-5.24,6-4.68a2.26,2.26,0,0,1,1.06.89c1.81,2.36,3.55,4.77,5.4,7.1a2.6,2.6,0,0,0,1.58.81,26.65,26.65,0,0,0,5.24.38,8,8,0,0,0,3.07-1.32c3.28-1.87,6.51-3.82,9.79-5.68a16.74,16.74,0,0,1,2.57-.92c-3.25-.38-5.83.87-8.25,2.25a7,7,0,0,1-6.22.22c-3.25-1.15-4.57-1.67-4.4-6.55a5.06,5.06,0,0,0-.08-.68c-.92,1-1,2.35-.51,5.09l-2.36.68,0,.38c2.38.92,5.81.67,5.45,4.83-1.89-.14-3.86.36-5.36-1.48a31.64,31.64,0,0,0-2.51-2.33c-1.25-1.23-1.33-2-.45-3.51.58-1,1.19-2,1.72-3,1.62-3.1,4.14-4.32,7.59-3.92a38.82,38.82,0,0,1,14.53,4.45,9.79,9.79,0,0,0,2.47.83c2.35.56,4.74,1,7.06,1.62a6,6,0,0,1,4.71,6,8.26,8.26,0,0,0,2.2,5c.55.68,1.1,1.37,1.6,2.1a4.06,4.06,0,0,1,.6,3.76,8.29,8.29,0,0,0-.05,5.42C465.26,80.79,464.42,84,462.78,87.1ZM431.27,60.22l2.6.57h0l-2.21,1.58-.36-2.14Z" transform="translate(-53.76 -45.63)"/><path class="cls-4" d="M281.15,147l0,.17c0-.06,0-.12,0-.19Z" transform="translate(-53.76 -45.63)"/><path class="cls-4" d="M297.22,137.08a41.14,41.14,0,0,0-3.43,14.13,3.74,3.74,0,0,0,.41,1.21,4.53,4.53,0,0,0,.67-1.08c1.12-4.06,2.09-8.16,3.33-12.18.55-1.79,1.28-3.52,1.86-5.3l-2.21,1.58Q297.55,136.26,297.22,137.08Z" transform="translate(-53.76 -45.63)"/><path class="cls-4" d="M352.1,225.58c-3-1.24-5.78-2.83-8.76-4.3a6,6,0,0,0,.62.85c4,3.74,8.81,5.48,14.08,6.22a6.46,6.46,0,0,0,2.34-.28,5.36,5.36,0,0,0,1.28-.71l-.14-.36A22.17,22.17,0,0,1,352.1,225.58Z" transform="translate(-53.76 -45.63)"/><path class="cls-4" d="M288.63,126.3h-1.24a5.3,5.3,0,0,1-.78-.09A42.57,42.57,0,0,0,281.18,147c0,.06,0,.12,0,.19s0,.07,0,.1h0l1.67-.33s0,0,0,0C282.73,139.92,284.93,132.79,288.63,126.3Z" transform="translate(-53.76 -45.63)"/><path class="cls-4" d="M348.58,128.11a13.91,13.91,0,0,0-2.93-4.63,20.61,20.61,0,0,0-3.19-14.29,11.34,11.34,0,0,1-1.39.94A16.74,16.74,0,0,1,343.76,122a8.11,8.11,0,0,0-2.83-1l0,.26c5.11.85,8,9.85,7,18.67q-.09.84-.23,1.68l2,.33h.06A26.15,26.15,0,0,0,348.58,128.11Z" transform="translate(-53.76 -45.63)"/><path class="cls-4" d="M355.93,100a3,3,0,0,0-1.48-1.49,18.93,18.93,0,0,0-3.16-.15q-3-.25-5.91-.6c-1.2-.07-2.39-.19-3.58-.32h-.2c-2-.17-4-.44-6.07-.6-2.45-.2-4.9-.3-7.35-.51a2.71,2.71,0,0,1-.42-.07c-1,0-1.95,0-2.92,0-2.75.29-5.46.69-8.19.72-4.45.06-7.15,2.37-8.93,6.15-.42.88-.89,1.74-1.25,2.64s-.68.73-1.37.49c-2.51-.89-5-1.7-7.59-2.5a2.43,2.43,0,0,0-1.49-.08,3.12,3.12,0,0,1-1.14.23l-.63.22a4.87,4.87,0,0,0-1.29.52,1.62,1.62,0,0,1-.36.21l-.1.07h0L271.06,119q-2.6,1.7-5.15,3.48a1.15,1.15,0,0,0-.44.8c0,.16.39.44.64.48a21.21,21.21,0,0,0,2.38.23c3.25.15,6.49.29,9.74.43a1.23,1.23,0,0,1,.45,0h.21l.13,0h.08a2.52,2.52,0,0,1,.61.1,5.44,5.44,0,0,1,.56.1c1,.16,2,.29,3,.54l.15,0,.25.05a5.62,5.62,0,0,1,.67.12c.93.07,1.92.37,2.74.44,1.72.15,3.44.24,5.15.37l.35,0A26,26,0,0,0,306,121.3a24.18,24.18,0,0,0,3-3,3.92,3.92,0,0,1,1.17-.68c.75-.33,1.52-.64,2.29-.91a3.2,3.2,0,0,1,1.39-.29,2.81,2.81,0,0,0,2.56-.77,1.51,1.51,0,0,1,1.09-.26c1.85.19,3.69.57,5.54.65a16.22,16.22,0,0,0,8.24-2.29c2.8-1.48,5.45-3.25,8.15-4.92l.2-.11a9.55,9.55,0,0,1,1.28-.72,10.52,10.52,0,0,0,1-.75,1.28,1.28,0,0,1,.51-.28l11.45-5.21a4,4,0,0,0,1-.49C355.36,100.88,356,100.21,355.93,100ZM308,117.85a15.94,15.94,0,0,1-6.91,4.54l0,0-.23.14c-.32.17-.66.3-1,.43l-.27.11a3.56,3.56,0,0,1-.61.29,24.54,24.54,0,0,1-2.65.85,4.62,4.62,0,0,1-2.7.5h-.07v.06l-7.27-.08.14-.21a5.11,5.11,0,0,1-1.31-.13,3.24,3.24,0,0,1-.85-.34l-.23,0c-.53-.14-1.07-.22-1.61-.31a2.17,2.17,0,0,1-.68-.24l-.34,0a4.35,4.35,0,0,1-1.26-.18L269,122.37c1.78-1.24,3.32-2.36,4.9-3.41,5.36-3.56,10.72-7.13,16.13-10.62a46.36,46.36,0,0,1,5.37-2.87,3.87,3.87,0,0,1,2.09-.19,16.55,16.55,0,0,1,7.48,3,15.43,15.43,0,0,1,4.15,5.17A3.85,3.85,0,0,1,308,117.85Zm8.08-4.78c-.52,1.83-.64,1.91-2.7,1.74.34-1.58,1.09-3.16-1.06-4.3a4.21,4.21,0,0,1-1.72,5.69c-.13-.18-.22-.25-.21-.3.74-2.86-.93-4.73-2.68-6.57-.42-.44-1.18-.86-.55-1.55a2.15,2.15,0,0,1,1.55-.67,27.8,27.8,0,0,1,4.72.86C316,108.69,316.85,110.52,316.12,113.07ZM347.19,103a3.17,3.17,0,0,1-1.31.59l-.34.21a1.48,1.48,0,0,1-.28.26,15.31,15.31,0,0,1-3,1.48,2.78,2.78,0,0,1-.45.23,11.4,11.4,0,0,0-1.24.64h0l-9,5.67,0,0a5.2,5.2,0,0,1-1.7.78,2.72,2.72,0,0,1-.43.2c-.86.3-1.71.6-2.58.87a7.12,7.12,0,0,1-3.09.66s0,.06,0,.1l-6.72-1.05c.64-2.43.8-4.59-1.9-6l2.33-3,.41.09s0,0,0,.05a2.84,2.84,0,0,1,.72-.18c-.49.06.14,0,.24-.07l.48-.13a4,4,0,0,1,1.09-.36,5.2,5.2,0,0,0,1.1-.3,3.21,3.21,0,0,1,.66-.22,10.08,10.08,0,0,1,1.44-.29h.13l0,0,3.14-.58h0a13.88,13.88,0,0,1,1.46-.24,2.15,2.15,0,0,1,.6-.2,5.94,5.94,0,0,0,1.73-1c-2.88.37-5.64.59-8.35,1.1-2.09.4-4.12,1.1-6.17,1.69a2,2,0,0,0-.5.31c-.46.71-.91,1.43-1.42,2.1a1,1,0,0,1-.82.31c-1.7-.31-3.39-.69-5.24-1.07l1.64-3.34.05.14,0-.06a5.18,5.18,0,0,1,1.25-1.67,5.64,5.64,0,0,1,4.35-2c.41,0,.82,0,1.23,0l3.68-.5a.37.37,0,0,1,.17-.08,6.31,6.31,0,0,1,2-.07l3.75-.08h0a8.14,8.14,0,0,1,1.9-.19,2,2,0,0,1,.59,0c3.08.27,6.16.51,9.24.79,3.45.32,6.89.71,10.35,1,1.73.14,3.47.09,5.2.17a1.84,1.84,0,0,1,1.2.54Z" transform="translate(-53.76 -45.63)"/><path class="cls-4" d="M306.53,111.46c-3.81-1.9-7.19,0-10.67,1.48a8.44,8.44,0,0,1-1.24.88l-.38.25a3.37,3.37,0,0,1-.65.42,6.48,6.48,0,0,1-1,.92l-.16.13a2.45,2.45,0,0,1-.33.31l-.27.29-.42.75.18.22,6.76-3.76c.83-.61,1.85-.59,2.78-1a.4.4,0,0,1,.29,0,8.32,8.32,0,0,1,2.59-.58,5,5,0,0,1,2,0,.34.34,0,0,1,.21.12h.34Z" transform="translate(-53.76 -45.63)"/></g></svg>