<svg id="Layer_1" data-name="Layer 1" xmlns="http://www.w3.org/2000/svg" xmlns:xlink="http://www.w3.org/1999/xlink" viewBox="0 0 1024 1024"><defs><style>.cls-1{fill:url(#linear-gradient);}.cls-2{fill:#fff;stroke:#fff;stroke-miterlimit:10;stroke-width:6px;}</style><linearGradient id="linear-gradient" x1="512" x2="512" y2="1024" gradientUnits="userSpaceOnUse"><stop offset="0" stop-color="#ec4972"/><stop offset="1" stop-color="#e71e50"/></linearGradient></defs><title>icon</title><rect id="BG" class="cls-1" width="1024" height="1024"/><g id="Icon"><g id="Arm_Icon" data-name="Arm Icon"><path class="cls-2" d="M843.4,303.46c.45-5.61-1.5-11.38-2.14-17.11-.33-3-1-6.3-.06-8.92,3.84-10.42.44-18.83-6.47-26.35-4.56-5-7.78-10.43-8.73-17.17-2.07-14.59-12-21.77-25.15-24.13s-25.51-7-37.74-12.4-25.41-8.77-38.89-8.82c-10.48,0-19.9,3.53-25.66,13.33l-8.43,14.34c-4-6.28-9.24-5.34-14.45-4.06-21.54,5.28-22.13,22.64-14.8,36.47a5.56,5.56,0,0,1,.67,3.81c-3.21,9.87-1.47,19.05,4.11,27.43,2.59,3.89,3.22,7.82,3.37,12.28.44,13.53.94,27.26,7.68,39.4,4.1,7.39,9.71,14,14.79,20.79,2.74,3.7,6.15,6.94,8.6,10.8,4,6.29,0,12-2.32,17.61C689,402,675.11,419.84,660,436.88c-8.76,9.88-16.85,20.36-25.76,30.09-8.12,8.87-17,17-25.43,25.62Q595.75,506,583,519.66c-11.1,11.95-23.78,22.06-36.62,32q-9.46,7.32-18.9,14.67a22.28,22.28,0,0,1-2.47,1.72,24.91,24.91,0,0,1-2.62,1.6c-1.61,1.35-3.29,2.64-5,3.91-1.23.94-3.21,1.91-3.87,2.72a4.44,4.44,0,0,1-1.42,1.13c-.59.69-1.2,1.37-1.84,2-4.72,4.86-10.28,8.91-15.54,13.22-.81.67-2.07.79-3.62,1.34-.62-2.62-1.32-4.87-1.62-7.15a5.77,5.77,0,0,1-.18-.66c-.44-2.29-1-4.52-1.46-6.79-.06-.15-.12-.31-.17-.46l0,0c-1.14-4.6-2.19-8.14-2.9-11.76-2.4-12.36-5.45-24-10.37-35.55a96.52,96.52,0,0,0-10.48-20.89q-2.51-3.78-5.38-7.3l-6.68-1.11q.46-2.76.76-5.55-1.5-1.54-3.06-3h0l-.06-.06-.18-.18c-.39-.39-1.1-1.11-1.23-1.21l-.46-.32-.33-.3,0,.05c-1.83-1.19-4.4-2.57-4.4-2.57l-1.28-.47-2.78-1c-1.2-.41-2.39-.77-3.37-1-1.28-.36-2.17-.58-2.17-.58s-8.8-1.53-13.11-2.23a8.74,8.74,0,0,1-1-.26c-6.15,1-14,1.38-21.09,2.51-15.52,2.47-31.39,6.75-45.63,14.53,7.58-11.92,18.18-21.19,26.84-32.43-1.14.66-2.33,1.24-3.4,2-17.75,12.4-30.94,28.73-41.46,47.5s-19.59,38.06-24.34,59c-2.71,11.92-3,24.41-4,36.68-.18,2.36,2.05,4.82,2.75,7.36a56.71,56.71,0,0,1,1,7.59c-4.86-.09-8.73-1.1-11.71-4.07-6.07-6.07-11-12.68-14.2-21-6.61-17.1-7.13-34.83-7.83-52.66a7.1,7.1,0,0,0-.87-3.5c-4.22,8.64-2.63,17.91-3.16,27.69-7.21-4.06-13.68-8.1-18.77-14.27-8.14-9.88-11.82-21.37-13.88-33.79q-.57-3.41-1.45-6.74s0,.06,0,.09l-5.51,1.1,5.15,25.4c.17.42.36.82.53,1.24a57.32,57.32,0,0,0,26.68,30,44.11,44.11,0,0,0,6.82,2.55c2.62,9.22,4.6,18.14,7.71,26.65,4.28,11.72,10.94,21.78,23.35,26.52a15.42,15.42,0,0,0,4.66,1.05,5.46,5.46,0,0,1,4.49,2.09c3.65,2.54,6.93,7.69,8.66,14.11a10.15,10.15,0,0,1,.78,1.69c2.2,6,5.07,11.67,7.76,17.71h-.13c1,1.89,1.92,3.89,2.82,6,.24.56.47,1.11.7,1.67.14.26.28.53.41.81,7,14.84,14.45,29.46,21.89,44.08a57.68,57.68,0,0,0,6,9.06,6.65,6.65,0,0,1,1.06,1.86c1.33,1.8,2.55,3.57,3.66,5.3h0c4.31,6,8.17,11.23,11.84,16.58C384.57,766,391.17,777,399,787a108.24,108.24,0,0,0,32.68,27.75c10.82,6.11,21.9,12,33.43,16.57a53.92,53.92,0,0,0,40.87.1c4.15-1.67,7.8-4.91,11.26-7.91,3.92-3.39,7.38-7.33,11-11l.18.09q.88-1.05,1.82-2.1A64.36,64.36,0,0,1,537,804a13.62,13.62,0,0,1,1.51-1.4c13.1-10.36,26.49-20.39,39-31.43,11.83-10.45,23-21.68,33.88-33.14,18.39-19.39,32.73-41.83,46.78-64.4,13-20.83,25.82-41.72,38.37-62.8,8.53-14.34,16.58-29,24.56-43.63,5.69-10.45,10.79-21.22,16.34-31.75,10.51-19.91,25-59.69,25-59.69s7-22.62,14.41-40.72,21.24-26.11,35.14-51.7,13.87-31.44,18.69-47.1a16.58,16.58,0,0,1,2.93-5.3C840,322.9,842.62,313.32,843.4,303.46Zm-11.46,19.15c-6.09,11.33-10,23.41-13.53,35.7-6.95,24-36.73,51.65-42,65.46s-12.51,33.15-12.51,33.15S746,504.57,737.49,520.32c-7.11,13.14-12,26.59-19.2,39.68-7.33,13.36-15.77,26.14-22.6,39.74-18.52,36.87-42.13,70.54-65.25,104.47a267.41,267.41,0,0,1-49,54.64c-17,14.25-34.17,28.32-51,42.74A193.91,193.91,0,0,0,514,817.88c-9.15,9.94-20.6,12.34-33.34,10.81-14-1.68-26.54-7.36-38.5-14.37-14.72-8.63-28.65-18.51-39.3-32-7.43-9.42-13.63-19.83-20.31-29.84-2.9-4.34-5.33-9-8.52-13.14-15.74-20.27-26.59-43.25-37-66.46-6.71-15-13-30.13-19.44-45.21-8.17-19.09-5.36-38.21.55-57.05a223.65,223.65,0,0,1,12.6-32.41c6.65-13.41,14.33-26.81,28.52-33.56,9.46-4.5,19.89-7.05,30-10,7.92-2.34,16-4,24.06-6,6.24-1.51,17.64,2.71,17.64,2.71a49.21,49.21,0,0,1,8,2.62,18.64,18.64,0,0,1,5.86,3.91l0,0a90.12,90.12,0,0,1,24,36.64c1.29,4.66,7.91,28.54,11,41.11,1.76,7,3.09,14.18,4.7,21.26.84,3.69-.29,6.47-2.66,9.48-3.93,5-7.19,10.5-10.59,15.88-.49.77-.22,2-.31,3,1-.37,2.22-.48,2.84-1.16,5.61-6.09,10.71-12.7,16.73-18.33,10.07-9.4,20.51-18.44,31.17-27.17,11.32-9.27,23.32-17.72,34.57-27.07,10-8.32,19.73-17.06,29-26.18,10.55-10.36,20-21.8,30.75-32,23.33-22.15,43.78-46.82,64.06-71.64,11.21-13.72,19.22-29.33,25-46.1,3.06-8.92,2.14-16.74-5-23.53s-13.74-14.11-18-23.31c-5.24-11.38-6.44-23.48-6.79-35.68-.19-6.58-1.22-12.42-5.26-17.93-5.5-7.51-5.75-16.15-3.64-25,.4-1.67-.29-3.63-.66-5.43-.88-4.23-2.61-8.43-2.66-12.66-.11-8.39,11.71-17.31,20-15.44,1.33.3,2.57,1.75,3.49,2.95,6,7.79,11.72,15.74,17.81,23.43a8.57,8.57,0,0,0,5.22,2.68c5.74.74,11.59,1.64,17.3,1.24,3.47-.25,6.92-2.54,10.13-4.36,10.82-6.17,21.49-12.61,32.32-18.76,2.33-1.32,5.1-1.86,8.47-3-10.74-1.25-19.25,2.88-27.23,7.44-7.09,4.05-13.9,3.08-20.54.72-10.74-3.8-15.09-5.51-14.53-21.61a16.72,16.72,0,0,0-.25-2.26c-3,3.32-3.42,7.77-1.67,16.79L705.92,224l-.11,1.25c7.85,3,19.17,2.2,18,15.95-6.24-.45-12.75,1.18-17.71-4.9-2.36-2.89-5.6-5-8.29-7.68-4.14-4.07-4.4-6.61-1.5-11.57,1.9-3.26,3.94-6.45,5.68-9.79,5.34-10.23,13.66-14.26,25.06-12.94,16.92,2,33,6.42,48,14.71a32.33,32.33,0,0,0,8.16,2.73c7.75,1.85,15.66,3.15,23.3,5.35,9.64,2.77,15.16,9.42,15.54,19.66.24,6.52,3.37,11.57,7.28,16.38,1.83,2.25,3.64,4.53,5.28,6.92a13.4,13.4,0,0,1,2,12.42,27.36,27.36,0,0,0-.17,17.9C840.13,301.77,837.37,312.5,831.94,322.61Zm-104-88.75,8.57,1.87-.07,0-7.3,5.23-1.19-7.08Z" transform="translate(0 0)"/><path class="cls-2" d="M232.31,520.26l.11.56c0-.21,0-.41,0-.62Z" transform="translate(0 0)"/><path class="cls-2" d="M285.36,487.59c-6.1,15-10.75,30.33-11.31,46.65,0,1.31.87,2.66,1.34,4,.76-1.19,1.86-2.28,2.22-3.58,3.7-13.4,6.89-27,11-40.22,1.83-5.9,4.22-11.63,6.16-17.49l-7.28,5.22Q286.46,484.88,285.36,487.59Z" transform="translate(0 0)"/><path class="cls-2" d="M466.53,779.78c-9.79-4.09-19.1-9.33-28.91-14.21a19.94,19.94,0,0,0,2,2.82c13.06,12.35,29.09,18.08,46.5,20.53,2.49.35,5.21-.31,7.73-.93,1.51-.37,2.82-1.55,4.22-2.36l-.46-1.2C487,784.81,476.35,783.89,466.53,779.78Z" transform="translate(0 0)"/><path class="cls-2" d="M257,452c-1.36,0-2.72,0-4.08,0a17.51,17.51,0,0,1-2.57-.31c-11.1,20.65-18.26,43.81-17.92,68.52,0,.21,0,.41,0,.62s0,.23,0,.34h.07l5.51-1.1s0-.06,0-.09C237.51,497,244.78,473.43,257,452Z" transform="translate(0 0)"/><path class="cls-2" d="M454.91,458a45.92,45.92,0,0,0-9.66-15.29,68.05,68.05,0,0,0-10.53-47.19,37.45,37.45,0,0,1-4.59,3.1A55.27,55.27,0,0,1,439,437.76a26.77,26.77,0,0,0-9.34-3.44l-.14.86c16.87,2.79,26.25,32.52,23.09,61.62q-.3,2.78-.76,5.55l6.68,1.11.2,0C461.44,487,460.09,470.88,454.91,458Z" transform="translate(0 0)"/><path class="cls-2" d="M479.18,365.29c-1.1-2-2.91-4.39-4.9-4.91-3.29-.86-6.94-.22-10.42-.51q-9.77-.81-19.51-2c-4-.22-7.89-.62-11.83-1.07l-.2,0-.46,0c-6.69-.55-13.35-1.45-20-2-8.08-.66-16.19-1-24.27-1.69a9,9,0,0,1-1.4-.24c-3.21.12-6.42.08-9.65-.06-9.07,1-18,2.27-27,2.39-14.7.19-23.59,7.82-29.48,20.3-1.37,2.91-2.92,5.75-4.12,8.73-1,2.49-2.23,2.42-4.53,1.6-8.28-2.94-16.66-5.63-25-8.26-1.54-.48-3.53-.84-4.92-.28a10.29,10.29,0,0,1-3.77.75l-2.08.72a16.09,16.09,0,0,0-4.25,1.71,5.35,5.35,0,0,1-1.18.68c-.11.08-.22.16-.33.23h0C246,397,222.46,412.35,199,427.76q-8.57,5.63-17,11.49a3.81,3.81,0,0,0-1.47,2.65c0,.54,1.29,1.47,2.1,1.6a70,70,0,0,0,7.87.78c10.72.51,21.44.95,32.16,1.41a4.06,4.06,0,0,1,1.49.06l.21,0a1.66,1.66,0,0,1,.5,0,3.72,3.72,0,0,1,.42.06h.26a8.32,8.32,0,0,1,2,.34,18,18,0,0,1,1.84.32c3.3.54,6.53,1,9.75,1.77l.49.06.84.17a18.57,18.57,0,0,1,2.21.39c3.06.25,6.33,1.23,9,1.46,5.68.5,11.34.79,17,1.21a10,10,0,0,1,1.14-.11c16.45-.67,31-6.91,44.46-15.86,3.84-2.56,6.58-6.74,10-10a13,13,0,0,1,3.86-2.24c2.48-1.09,5-2.11,7.57-3,1.48-.51,3.13-1.15,4.59-.94a9.26,9.26,0,0,0,8.45-2.53,5,5,0,0,1,3.6-.87c6.11.64,12.18,1.89,18.29,2.16,9.79.42,18.8-3.12,27.21-7.56,9.25-4.88,18-10.72,26.9-16.25.22-.14.45-.25.67-.37a31.53,31.53,0,0,1,4.21-2.39A34.72,34.72,0,0,0,433.1,389a4.23,4.23,0,0,1,1.67-.94l37.81-17.19c1.15-.52,2.51-.8,3.4-1.6C477.29,368.11,479.5,365.88,479.18,365.29ZM321.1,424.12c-6.75,6.84-14.17,12.63-22.81,15l-.07-.13c-.25.16-.49.33-.77.47-1.06.55-2.18,1-3.29,1.43l-.89.36a11.74,11.74,0,0,1-2,1,81,81,0,0,1-8.74,2.82,15.25,15.25,0,0,1-8.91,1.66l-.23,0c0,.06,0,.12,0,.18l-24-.27.46-.7a16.87,16.87,0,0,1-4.32-.42,10.69,10.69,0,0,1-2.8-1.13c-.26-.06-.49-.09-.76-.16-1.74-.46-3.54-.73-5.33-1a7.15,7.15,0,0,1-2.26-.79c-.37,0-.74.06-1.12.06a14.37,14.37,0,0,1-4.15-.59l-36.91-2.73c5.88-4.1,10.95-7.8,16.17-11.26,17.7-11.76,35.38-23.55,53.24-35.07a153.05,153.05,0,0,1,17.72-9.48,12.78,12.78,0,0,1,6.89-.64,54.64,54.64,0,0,1,24.69,9.86c5.71,4.22,10.32,10.68,13.7,17.06C327.11,414.2,325.22,419.94,321.1,424.12Zm26.67-15.77c-1.71,6-2.12,6.32-8.9,5.73,1.13-5.21,3.61-10.44-3.49-14.2,3.43,8.37,1.05,14.24-5.67,18.8-.42-.59-.74-.84-.7-1,2.45-9.44-3.06-15.62-8.85-21.7-1.38-1.45-3.88-2.85-1.8-5.11a7.09,7.09,0,0,1,5.12-2.2,91.79,91.79,0,0,1,15.6,2.83C347.27,393.87,350.16,399.92,347.77,408.34Zm102.57-33.23a10.46,10.46,0,0,1-4.32,1.94c-.37.23-.73.47-1.11.68a4.89,4.89,0,0,1-.94.87,50.55,50.55,0,0,1-9.92,4.9,9.17,9.17,0,0,1-1.5.78,37.64,37.64,0,0,0-4.08,2.11h0l-29.59,18.73-.09-.11a17.18,17.18,0,0,1-5.62,2.57,9,9,0,0,1-1.42.64c-2.82,1-5.65,2-8.5,2.87a23.51,23.51,0,0,1-10.2,2.17c0,.11,0,.21.07.32L351,410.13c2.11-8,2.65-15.14-6.28-19.73l7.71-9.78,1.36.29c0,.06,0,.11,0,.17a9.36,9.36,0,0,1,2.37-.61c-1.62.19.45-.15.79-.23.53-.13,1-.28,1.57-.42a13.07,13.07,0,0,1,3.59-1.2,17.17,17.17,0,0,0,3.62-1,10.61,10.61,0,0,1,2.19-.74,33.29,33.29,0,0,1,4.76-1c.14,0,.28,0,.42,0l-.11-.13,10.38-1.92v0a45.83,45.83,0,0,1,4.82-.78,7.11,7.11,0,0,1,2-.67c2-.38,3.76-2.21,5.7-3.43-9.5,1.21-18.63,1.94-27.58,3.64-6.9,1.31-13.6,3.62-20.37,5.58a6.75,6.75,0,0,0-1.65,1c-1.52,2.34-3,4.72-4.68,6.94a3.33,3.33,0,0,1-2.71,1c-5.61-1-11.19-2.26-17.3-3.54l5.41-11,.17.47c0-.06,0-.13.07-.19a17.11,17.11,0,0,1,4.14-5.52c3-3.83,10-7.18,14.35-6.51,1.35-.13,2.69-.15,4-.16l12.14-1.64a1.22,1.22,0,0,1,.57-.26,20.82,20.82,0,0,1,6.58-.24l12.38-.26h0a26.88,26.88,0,0,1,6.29-.64,6.43,6.43,0,0,1,1.94-.09c10.16.89,20.34,1.67,30.5,2.6,11.39,1,22.76,2.34,34.16,3.27,5.7.46,11.44.31,17.16.55a6.08,6.08,0,0,1,4,1.79Z" transform="translate(0 0)"/><path class="cls-2" d="M316.09,403c-12.57-6.28-23.74,0-35.22,4.9a27.86,27.86,0,0,1-4.11,2.89l-1.24.83a11.14,11.14,0,0,1-2.13,1.4,21.4,21.4,0,0,1-3.4,3c-.19.14-.35.3-.53.44a8.08,8.08,0,0,1-1.07,1l-.88,1L266.14,421l.61.74,22.33-12.4c2.74-2,6.12-1.93,9.17-3.45a1.31,1.31,0,0,1,.95-.09,27.47,27.47,0,0,1,8.56-1.92,16.56,16.56,0,0,1,6.64.1,1.13,1.13,0,0,1,.69.39h1.13Z" transform="translate(0 0)"/></g></g></svg>